<svg xmlns="http://www.w3.org/2000/svg" viewBox="0 0 24 24" aria-hidden="true">
  <!-- Shield outline -->
  <path d="M12 1L3 5v6c0 5.55 3.84 10.74 9 12 5.16-1.26 9-6.45 9-12V5l-9-4zm0 2.18L19 6.09v4.91c0 4.52-3.04 8.9-7 10-3.96-1.1-7-5.48-7-10V6.09L12 3.18z"></path>

  <!-- Keypad dots inside -->
  <circle cx="9" cy="10" r="0.9"></circle>
  <circle cx="12" cy="10" r="0.9"></circle>
  <circle cx="15" cy="10" r="0.9"></circle>

  <circle cx="9" cy="13" r="0.9"></circle>
  <circle cx="12" cy="13" r="0.9"></circle>
  <circle cx="15" cy="13" r="0.9"></circle>

  <circle cx="10.5" cy="16" r="0.9"></circle>
  <circle cx="13.5" cy="16" r="0.9"></circle>
</svg>
